<svg width="7000" height="7364" xmlns="http://www.w3.org/2000/svg" xml:space="preserve" enable-background="new 0 0 7000 7364" version="1.1">

 <g>
  <title>Layer 1</title>
  <path id="svg_3" d="m4287.9541,8.85819c30.28223,4.93021 60.15967,11.24032 88.85156,22.63514c77.69922,30.85788 127.83447,86.75644 151.85938,166.40654c10.8374,35.93076 15.34424,72.82672 15.8291,110.32678c0.96387,74.55353 -12.47656,146.90256 -31.1958,218.71817c-19.74512,75.75305 -55.01416,144.0921 -96.29639,209.7818c-40.81787,64.95056 -85.99756,126.76758 -133.96777,186.61426c-65.4751,81.68481 -134.97217,159.78717 -207.03833,235.68573c-112.0083,117.96484 -229.17651,230.59436 -350.81372,338.52344c-92.20142,81.81055 -185.92261,161.90613 -278.38965,243.42053c-59.97729,52.87329 -119.50073,106.29285 -178.18433,160.59473c-96.30908,89.11743 -191.9668,178.94226 -287.51636,268.87537c-57.70508,54.31323 -114.94556,109.12769 -171.91382,164.21436c-46.45825,44.92358 -92.28931,90.49731 -138.24048,135.94263c-49.28857,48.74683 -98.59082,97.48315 -147.52246,146.58716c-52.22437,52.40869 -104.5188,104.76294 -155.90063,157.99243c-99.45605,103.03247 -198.37109,206.59058 -294.53442,312.72974c-80.99268,89.39404 -160.78333,179.8252 -235.67346,274.45996c-33.91565,42.85767 -66.91943,86.39307 -96.20813,132.59692c-10.26819,16.19873 -20.51306,32.47437 -28.99182,51.33521c14.80591,-0.33691 27.48315,-4.46973 40.31604,-7.11792c70.39795,-14.52783 140.71399,-29.4519 211.06116,-44.22632c69.70776,-14.63989 139.39612,-29.37402 209.13513,-43.86377c71.69702,-14.89648 143.45874,-29.4812 215.1665,-44.32642c58.01489,-12.01099 115.9707,-24.30664 173.98999,-36.29688c82.78833,-17.10938 165.61523,-34.03101 248.4165,-51.07666c78.88745,-16.24048 157.74683,-32.6189 236.64917,-48.78516c70.43628,-14.43188 140.97925,-28.34912 211.35547,-43.06689c59.9292,-12.53296 119.63623,-26.1228 179.53418,-38.80908c72.323,-15.31763 144.68774,-30.45117 217.13892,-45.14795c62.63037,-12.70459 125.32275,-25.13916 188.13916,-36.88281c94.89014,-17.73975 189.86084,-35.06201 284.89697,-52.00464c58.9502,-10.50928 117.99121,-20.59009 177.16113,-29.77173c69.0415,-10.71313 138.22754,-20.52271 207.42773,-30.17407c45.49902,-6.3457 91.06445,-12.34131 136.7251,-17.35669c48.93018,-5.37476 97.96191,-9.98193 147.03125,-13.90234c67,-5.35352 134.10791,-9.14868 201.37744,-7.85547c47.25635,0.9082 94.41943,3.18286 141.59521,6.72485c43.1665,3.24121 86.13623,7.62012 128.84814,14.18018c97.77197,15.01685 193.20557,38.81665 283.7124,79.72241c72.91553,32.95532 139.23828,75.65674 194.87402,133.87598c58.46143,61.17578 97.51611,132.85278 116.09766,215.41846c7.18359,31.91821 10.79541,64.34668 9.7002,97.17358c-0.17432,5.22412 -0.02441,10.45947 -0.02441,16.32397c16.38037,-1.32495 31.61182,-1.84839 46.62988,-3.91724c32.49365,-4.47656 65.17041,-3.45483 97.77344,-4.00928c35.29102,-0.60034 70.57813,1.23535 105.63916,5.22339c60.32031,6.86084 119.68018,18.28931 177.0459,38.9541c47.95703,17.27588 92.87988,40.0481 133.67871,70.74927c70.64404,53.15845 117.24414,122.8313 142.15527,207.30029c14.41406,48.87549 20.56445,98.95435 21.09814,149.82764c0.78027,74.32861 -9.82324,147.23364 -25.9585,219.60571c-29.05029,130.29834 -78.82324,252.74463 -139.55566,371.04785c-53.00244,103.24609 -113.19824,202.22168 -178.11084,298.40283c-69.38379,102.80713 -143.61475,201.98193 -221.1626,298.73877c-102.58643,127.99609 -210.84717,251.02637 -323.42236,370.27881c-39.30518,41.63623 -78.88232,83.0332 -119.07275,123.81152c-35.06543,35.57861 -70.98877,70.31934 -106.86084,105.09326c-39.67334,38.46045 -79.375,76.90381 -119.6958,114.68115c-42.28955,39.62305 -84.97021,78.8457 -128.11621,117.53418c-85.3457,76.52881 -171.67529,151.95947 -260.63428,224.27393c-74.44922,60.51953 -149.27832,120.5957 -224.84521,179.70996c-116.53369,91.16162 -236.48047,177.72119 -358.35938,261.58887c-149.92725,103.16846 -303.573,200.48535 -461.60205,290.7627c-106.44751,60.81055 -214.77393,118.12988 -325.55103,170.74756c-73.41333,34.87061 -147.59961,67.99414 -223.09692,98.07031c-99.61621,39.68457 -200.54077,75.60254 -304.44873,102.61768c-47.69849,12.40186 -95.82178,22.7417 -144.55078,30.20752c-3.7793,0.5791 -8.22437,0.05371 -8.69385,6.26367c-72.13135,1.38184 -145.5481,1.38184 -220.83984,1.38184c0.89868,-1.75879 1.59937,-4.88965 -1.28931,-5.88867c-7.50659,-2.59375 -15.40015,-4.05176 -23.10718,-6.08496c-34.43628,-9.08252 -66.6145,-23.02637 -95.73486,-43.82031c-37.34058,-26.66504 -64.35791,-61.43555 -82.03589,-103.58008c-12.96509,-30.90967 -20.22583,-63.10449 -24.19116,-96.47754c-7.39819,-62.27051 -0.96069,-123.51025 10.04175,-184.63623c8.03687,-44.65039 19.48315,-88.45801 34.31372,-131.27979c16.63306,-48.02637 40.72485,-92.56543 66.73584,-136.05469c47.30762,-79.09619 102.36206,-152.69336 160.16553,-224.29688c57.78955,-71.58643 118.88892,-140.29541 182.14551,-207.0625c55.43481,-58.50977 112.2041,-115.69922 170.14038,-171.77148c59.37378,-57.46289 119.39893,-114.21143 181.15527,-169.06982c72.21387,-64.14648 145.61597,-126.95459 218.02197,-190.88721c78.91113,-69.67676 157.65796,-139.54932 235.74756,-210.14258c61.76685,-55.83789 122.64429,-112.66748 183.51611,-169.48535c45.7561,-42.7085 90.95117,-86.02002 136.26025,-129.20605c48.68628,-46.40527 97.43091,-92.75244 145.74438,-139.54346c42.58936,-41.24707 84.76123,-82.92773 126.86328,-124.67383c68.15625,-67.58057 136.37695,-135.10107 204.0498,-203.16455c49.79883,-50.08691 99.18848,-100.59668 148.00635,-151.63965c74.57861,-77.97754 149.18652,-155.9458 222.54199,-235.06787c99.21094,-107.0127 196.14014,-216.07666 286.25244,-330.98584c35.36865,-45.10107 69.86377,-90.85571 99.30078,-140.16577c6.354,-10.6438 12.6123,-21.38525 19.23779,-35.18115c-20.53809,4.1189 -38.07178,7.4812 -55.53809,11.16284c-125.69971,26.49487 -251.3584,53.18555 -377.08691,79.54272c-69.06445,14.47803 -138.25439,28.35596 -207.36084,42.63403c-91.27539,18.8584 -182.50146,37.95166 -273.78906,56.74902c-144.73535,29.80249 -289.53418,59.29395 -434.24756,89.20215c-108.20239,22.36182 -216.28369,45.30762 -324.46973,67.74902c-129.04272,26.76758 -257.95483,54.21191 -387.26538,79.62402c-122.1377,24.00049 -244.53662,46.79199 -367.16113,68.16016c-102.94434,17.93799 -206.25073,33.93457 -309.64038,49.13574c-74.39966,10.93945 -149.15674,19.51855 -223.83936,28.4375c-38.2832,4.57227 -76.70264,8.2417 -115.14844,11.15967c-77.02783,5.84473 -154.16919,10.34961 -231.45386,8.01563c-41.896,-1.26465 -83.71851,-4.84082 -125.5896,-7.0835c-57.25293,-3.06738 -113.89355,-11.01367 -170.19141,-21.43213c-94.04785,-17.4043 -185.12781,-44.24072 -270.78296,-87.59717c-47.77344,-24.18213 -92.21399,-53.48682 -132.11499,-89.29785c-51.22595,-45.9751 -92.10461,-99.62451 -119.50793,-163.14575c-23.52002,-54.51978 -36.07666,-111.30957 -36.20618,-170.76099c-0.01587,-7.25488 -0.0022,-14.50977 -0.0022,-21.03467c-2.07031,-3.77563 -5.01245,-2.90625 -7.41162,-2.60083c-59.60229,7.58838 -119.45782,9.67017 -179.41321,7.02637c-81.48877,-3.59302 -161.58667,-15.57837 -238.79498,-43.0979c-52.44244,-18.69214 -101.19922,-44.06299 -144.92291,-78.97021c-58.91168,-47.03247 -100.00125,-106.54834 -125.03839,-177.20752c-19.75839,-55.76221 -27.71286,-113.69312 -28.33871,-172.67285c-0.78137,-73.6333 9.74249,-145.93384 25.69571,-217.64355c28.09842,-126.30273 75.57037,-245.36279 133.83405,-360.42773c51.82819,-102.35596 110.91248,-200.41162 174.51935,-295.85474c65.815,-98.75659 136.14001,-194.17969 209.83862,-287.14038c94.83862,-119.62549 194.3606,-235.24792 298.42273,-346.94104c41.76196,-44.82471 83.4563,-89.73669 126.21594,-133.60071c44.16162,-45.30212 89.56274,-89.39636 134.45264,-133.98767c72.78149,-72.29736 147.84424,-142.18079 223.74585,-211.17102c104.04163,-94.56787 210.5415,-186.28943 319.18884,-275.52625c81.86963,-67.24292 164.86499,-133.06238 249.20752,-197.17175c94.42407,-71.7724 190.36328,-141.46918 287.87891,-208.98895c94.23096,-65.24542 189.94312,-128.24994 287.27539,-188.76129c100.71533,-62.61469 203.02075,-122.52206 307.42432,-178.82251c109.68335,-59.14767 221.1311,-114.67422 335.40015,-164.45699c113.60303,-49.49249 228.98975,-94.25338 347.91357,-129.3702c68.34106,-20.1803 137.46997,-37.20726 208.13867,-47.31863c5.25464,-0.75183 10.49756,-1.83001 15.58594,-3.3061c1.08057,-0.3134 1.46387,-3.02957 0.49463,-5.84024c0.104,-1.2015 1.88184,-1.2015 4.60254,-1.08227c0.94336,0.11924 0.82275,1.66821 1.10547,3.60099c1.57178,2.11741 2.86084,2.30204 5.39355,3.40403c8.19629,0.04611 15.20068,-0.54927 22.07764,-1.82894c2.84619,-0.52973 3.78613,-2.86279 1.14697,-5.29531c45.41699,0 90.83398,0 137.0376,0.85593c2.81006,6.26218 6.33447,6.8338 10.9165,4.00226m-1168.01489,7049.21115c62.92749,-21.81055 125.15161,-45.47559 186.85669,-70.53369c104.36914,-42.3833 206.21899,-90.22803 306.29858,-141.82861c111.93726,-57.71484 221.45239,-119.76074 329.03833,-185.25049c89.92432,-54.73975 178.4248,-111.68213 265.66357,-170.57227c130.90723,-88.3667 258.65283,-181.13477 383.81104,-277.4707c136.28271,-104.89746 268.99756,-214.12549 398.5459,-327.23438c133.54834,-116.60107 262.77832,-237.82764 388.61816,-362.66016c43.49463,-43.14648 85.56055,-87.74023 128.04004,-131.90332c79.45117,-82.59912 156.09473,-167.75928 230.38672,-255.00928c85.56299,-100.48535 167.77686,-203.63574 244.73535,-310.91602c66.84131,-93.17676 129.77783,-188.854 186.06396,-288.82617c45.15479,-80.20313 85.93848,-162.50732 117.3374,-249.13672c33.26074,-91.76855 57.59033,-185.55469 60.58789,-283.8645c0.91699,-30.08276 -0.57764,-59.94751 -7.68359,-89.23779c-4.4043,-18.15405 -11.16016,-35.54395 -21.20508,-51.49951c-16.56494,-26.31201 -40.74658,-43.54004 -67.98828,-57.06421c-50.33301,-24.98779 -104.59863,-35.15796 -159.79297,-40.51025c-35.73633,-3.46533 -71.68848,-5.70459 -107.69336,-3.06006c-19.23486,1.41284 -38.63867,1.50415 -57.69531,4.1438c-30.98877,4.29224 -61.76172,10.15015 -92.60889,15.44604c-4.51514,0.7749 -8.9375,2.09106 -13.41357,3.15967c-5.81104,10.32983 -11.25342,20.22729 -16.90039,30.00659c-54.98242,95.22485 -113.19482,188.43091 -173.95459,280.08203c-74.396,112.21899 -152.57031,221.70239 -234.66943,328.40942c-94.33301,122.60791 -194.27979,240.4541 -300.76855,352.63916c-63.27002,66.65479 -128.05371,131.87402 -192.22021,197.67676c-23.26025,23.854 -46.50439,47.729 -70.12891,71.21973c-20.3125,20.19775 -41.23828,39.77637 -61.74756,59.77832c-40.98975,39.97559 -81.67578,80.26465 -122.86523,120.03271c-46.47559,44.87256 -93.10693,89.59033 -140.13184,133.88623c-98.39746,92.68701 -196.76416,185.41113 -295.77783,277.4375c-80.04102,74.39258 -160.67578,148.15479 -241.65039,221.53125c-107.62817,97.52979 -215.31592,195.00635 -323.94751,291.41357c-116.61108,103.48975 -234.14478,205.94336 -351.64453,308.42578c-115.54224,100.7749 -228.86865,203.875 -335.17871,314.47217c-50.80957,52.85791 -99.97583,107.14404 -144.28906,165.66406c-21.35278,28.19971 -41.26343,57.29004 -56.49585,89.35693c-6.60205,13.89844 -11.80762,28.17578 -13.5459,43.60986c-3.41211,30.29834 10.32788,48.55957 40.15234,52.89014c18.44629,2.67822 36.80786,3.67871 55.57495,1.91797c33.87134,-3.17725 67.3916,-8.06299 100.64819,-15.13818c60.65942,-12.90332 119.77368,-31.21973 181.63843,-51.4834m-1804.93408,-3661.10474c45.64636,-72.84302 92.97229,-144.5835 142.02661,-215.1709c68.84033,-99.05835 140.53967,-195.98608 215.7074,-290.36963c65.20374,-81.87207 132.78394,-161.69702 203.48816,-238.83545c83.27039,-90.84814 169.66736,-178.72388 256.19849,-266.44702c37.42847,-37.94434 75.55664,-75.20728 113.75098,-112.38525c65.83813,-64.08594 131.71582,-128.13525 198.0647,-191.69067c61.55981,-58.96777 123.50391,-117.54077 185.73511,-175.80005c87.04126,-81.4856 174.09424,-162.96643 261.89819,-243.62646c100.59424,-92.40955 201.68799,-184.28198 303.17236,-275.71338c96.51929,-86.95813 193.47681,-173.43774 290.88086,-259.40356c91.90796,-81.11511 184.75806,-161.16193 276.99194,-241.90894c92.75806,-81.20544 183.61768,-164.47498 269.61914,-252.86932c34.36572,-35.32184 68.18994,-71.21716 101.13135,-107.86621c36.08691,-40.14835 70.19238,-82.0083 100.2124,-127.00507c14.09277,-21.12341 26.05518,-43.42334 35.01953,-67.20026c6.2168,-16.48849 9.03467,-33.38657 3.50928,-50.82254c-4.10986,-12.9686 -11.44775,-22.52454 -25.63428,-25.01466c-19.01709,-3.33823 -37.96826,-6.23143 -57.51465,-4.98015c-62.79883,4.02005 -123.77881,17.4736 -184.2041,34.11993c-82.27686,22.6662 -162.50854,51.40277 -241.92236,82.40302c-127.29199,49.69028 -251.19019,106.92102 -372.42676,169.91531c-134.86255,70.07434 -266.14258,146.4101 -394.76904,227.30121c-159.69434,100.42896 -314.80688,207.54816 -466.10498,320.22723c-89.79565,66.87524 -178.11304,135.63599 -265.17749,206.01514c-119.21802,96.37061 -235.45825,196.23352 -348.97314,299.24023c-76.95093,69.82764 -152.99426,140.64746 -226.43201,214.20642c-41.41382,41.48193 -83.20129,82.5957 -124.28394,124.40234c-65.37524,66.52747 -128.76685,134.91589 -190.97351,204.42664c-112.94885,126.21143 -220.79102,256.55225 -320.74207,393.35034c-65.68665,89.90259 -127.66681,182.24756 -183.86218,278.41138c-52.50262,89.84448 -100.05463,182.14404 -136.01678,279.98242c-34.16541,92.94995 -58.97498,188.04419 -62.44354,287.72046c-1.04712,30.08936 1.10309,59.85742 7.7796,89.28076c11.37952,50.15015 40.5567,85.81104 86.67517,108.23389c24.08813,11.71191 49.0769,20.73584 74.99884,27.16821c57.81989,14.34741 116.84863,18.09204 176.11432,19.24536c9.2724,0.18066 18.56586,-1.69678 27.86932,-1.98535c52.0863,-1.6145 102.81409,-12.37915 152.46216,-21.53442c39.34192,-65.02661 77.93994,-128.82324 118.17493,-195.021m1955.48047,603.63037c78.64941,-17.40161 157.28516,-34.86523 235.95215,-52.18774c79.30469,-17.46265 158.05688,-37.31958 237.79932,-52.92847c109.71411,-21.47583 219.14185,-44.41528 328.71045,-66.63721c95.24292,-19.31665 190.53589,-38.38745 285.76099,-57.79028c94.57813,-19.27124 189.09033,-38.8689 283.64893,-58.23828c99.10938,-20.30151 198.25342,-40.43677 297.35693,-60.76611c83.4541,-17.11987 166.88916,-34.33081 250.30029,-51.65918c61.91895,-12.86304 123.79346,-25.93823 185.66992,-39.0022c22.72998,-4.79932 45.4082,-9.84058 68.66943,-14.89282c9.16992,-15.96753 18.67139,-31.24731 26.89502,-47.18604c8.25879,-16.0061 14.2002,-33.02393 17.729,-50.7915c8.79932,-44.29932 -1.67383,-83.17114 -32.69141,-116.25562c-11.45801,-12.2207 -24.36475,-22.72729 -38.48682,-31.69604c-19.17188,-12.17603 -39.40723,-22.30249 -60.53125,-30.63623c-57.33154,-22.61841 -117.16406,-35.32178 -177.8125,-44.78125c-48.68408,-7.59326 -97.68359,-12.29565 -146.80762,-15.75806c-29.86621,-2.10522 -59.73828,-4.64917 -89.64941,-5.44873c-25.22363,-0.67505 -50.5127,0.69482 -75.7627,1.48535c-71.86621,2.24951 -143.54541,7.39209 -214.9541,15.70752c-64.11572,7.46606 -128.23486,15.06714 -192.14941,24.0498c-65.24902,9.17041 -130.38086,19.34229 -195.33057,30.43945c-85.29785,14.57422 -170.46118,29.98462 -255.50439,45.9834c-62.78564,11.81152 -125.37231,24.72925 -187.89331,37.88916c-89.86768,18.9165 -179.66992,38.16113 -269.35986,57.90161c-81.26904,17.88696 -162.15259,37.56152 -243.56323,54.75708c-105.50342,22.28442 -211.37329,42.83081 -317.06201,64.24097c-87.43335,17.7124 -174.84253,35.54468 -262.24463,53.4104c-127.82324,26.12769 -255.62671,52.35034 -383.44507,78.50073c-111.49463,22.81055 -223.03394,45.40527 -334.48828,68.4104c-122.5542,25.29663 -245.04248,50.91309 -367.53931,76.48657c-23.42505,4.89014 -46.75635,10.229 -69.55676,15.23486c-4.2865,6.39282 -8.17175,11.7915 -11.65015,17.44116c-18.67358,30.32886 -33.67822,62.01147 -36.92261,98.2041c-2.20105,24.5564 2.08606,47.69922 13.65222,69.46777c8.23047,15.49023 19.3717,28.65771 32.47461,40.21533c25.81494,22.77051 55.72461,38.61133 87.44409,51.28833c57.24255,22.87695 117.11365,35.52686 177.74182,44.99414c49.33765,7.70508 98.98157,13.06396 148.81384,15.9751c38.46765,2.24609 76.90674,5.87354 115.54395,4.55176c21.23242,-0.72656 42.45972,0.72217 63.74976,-0.86133c35.8313,-2.66504 71.81201,-3.37061 107.625,-6.21777c38.4751,-3.05908 76.84375,-7.50195 115.23145,-11.59668c28.44824,-3.03467 56.91187,-6.03809 85.26294,-9.84277c40.22632,-5.39795 80.38013,-11.35547 120.52002,-17.37402c48.04907,-7.2041 96.13354,-14.22949 144.052,-22.2334c57.09619,-9.53735 114.12988,-19.51758 171.01611,-30.2312c81.76538,-15.39966 163.39697,-31.51514 245.03857,-47.56567c37.87158,-7.44556 75.63159,-15.45825 116.74658,-24.0564z" fill="#FCFAFA"/>
  <path id="svg_4" d="m12.12822,4208.11816c7.51011,-34.23242 20.79477,-65.98828 41.25063,-94.52734c40.62418,-56.67651 94.85182,-92.38794 163.68336,-105.16455c124.51085,-23.11182 242.33321,47.13989 285.78404,160.12207c50.92334,132.41162 -14.80539,273.6875 -136.97375,326.84668c-131.48563,57.21289 -278.23681,-4.04199 -335.22272,-127.63379c-7.85973,-17.04688 -13.45802,-34.7168 -17.91901,-55.94482c-0.43018,-8.81299 -1.04728,-14.47949 -1.54451,-20.15674c-0.39337,-4.49121 -3.25182,-6.55127 -7.18626,-7.65967c0,-14.77148 0,-29.54346 1.47274,-46.53467c8.28874,-10.29004 6.59229,-19.98682 6.65548,-29.34717z" fill="#FBF9F9"/>
  <path id="svg_5" d="m7004,3194.12549c-1.48096,-0.94678 -4.25488,-2.13794 -5.87939,0.59595c-2.68311,4.51465 -4.16162,9.73804 -6.21973,14.63208c-33.73193,80.18994 -92.26563,133.63306 -176.65918,153.96362c-98.0083,23.61011 -183.08154,-3.52344 -251.99316,-77.29688c-44.62793,-47.77686 -65.79492,-105.97852 -66.48535,-170.80957c-0.45166,-42.40674 9.66113,-83.14917 30.47021,-120.62012c39.84619,-71.75269 99.65088,-117.51074 180.60889,-131.67871c86.12939,-15.07324 161.80957,8.21216 225.21143,69.55518c26.79541,25.92529 46.38818,56.271 60.03467,90.81104c2.07373,5.24902 2.18408,12.06665 9.68799,13.92944c1.22363,50.87598 1.22363,102.95972 1.22363,156.91797z" fill="#FBFAFA"/>
  <path id="svg_6" d="m11.16552,4208.79785c0.89951,8.68066 2.59596,18.37744 -5.69278,26.8252c-1.47274,-6.48047 -1.47274,-13.33789 -1.47276,-21.90918c2.06761,-2.55469 4.13523,-3.396 7.16554,-4.91602z" fill="#838383"/>
  <path id="svg_7" d="m4,4285.71387c3.93444,-0.60547 6.79289,1.45459 7.18626,5.9458c0.49723,5.67725 1.11433,11.34375 1.28241,18.64209c-2.29564,0.1416 -4.19397,-1.34473 -7.28048,-2.56641c-1.18819,-6.59277 -1.18819,-13.4502 -1.18819,-22.02148z" fill="#8F8E8E"/>
  <path id="svg_8" d="m4138.40039,4c4.23877,2.43252 3.29883,4.76558 0.45264,5.29531c-6.87695,1.27967 -13.88135,1.87505 -20.81006,1.10911c2.56494,-2.52446 6.00488,-2.29371 5.95703,-6.40442c4.2666,0 8.53369,0 14.40039,0z" fill="#858585"/>
  <path id="svg_9" d="m4287.60059,7.64019c-4.22852,4.04954 -7.75293,3.47792 -8.68848,-2.78426c2.86572,-0.85593 4.64355,-0.85593 7.75488,-0.85593c1.08203,0.8074 0.83105,1.6148 0.93359,3.64019z" fill="#8B8A8A"/>
  <path id="svg_10" d="m4122.66699,4c1.38086,4.11071 -2.05908,3.87996 -5.86768,5.48705c-2.55664,0.53521 -3.8457,0.35058 -4.36377,-2.65855c1.70166,-2.82583 2.6333,-2.82717 3.56445,-2.8285c1.77783,0 3.55566,0 6.66699,0z" fill="#000000"/>
  <path id="svg_11" d="m4115,4c0.06885,0.00133 -0.86279,0.00267 -2.84766,0.89572c-1.05322,0.89172 -0.93262,-0.65725 -0.54248,-0.77649c0.39014,-0.11923 2.39014,-0.11923 3.39014,-0.11923z" fill="#858585"/>
  <path id="svg_12" d="m3469.01709,4537.05615c33.13403,-41.00146 73.46948,-69.02686 122.17993,-85.48828c92.56006,-31.27979 197.9209,-4.77148 265.93604,67.74365c45.75732,48.78467 69.46875,107.12305 70.17798,173.70264c0.65356,61.34229 -18.75952,116.69287 -58.02881,164.28906c-44.46021,53.8877 -101.81128,85.55713 -171.10889,92.94238c-75.51367,8.04785 -143.32056,-13.10498 -198.88599,-65.04736c-80.19922,-74.97021 -102.74512,-166.77295 -71.49121,-271.63623c8.24292,-27.65723 22.53027,-52.58887 41.22095,-76.50586z" fill="#FBF9F9"/>
  <path id="svg_13" d="m3325.13232,2424.26636c68.53198,-4.41455 129.10938,12.92896 180.53491,55.47339c77.67529,64.2605 110.71313,147.62646 91.95679,247.07397c-19.21704,101.88989 -81.66211,169.58911 -180.48535,199.2876c-139.69336,41.98096 -284.05249,-42.99316 -319.41772,-183.39795c-20.86426,-82.83301 -3.30737,-158.87012 50.53394,-225.06787c40.50977,-49.80737 93.16211,-80.64063 157.26758,-90.51318c5.91431,-0.9104 11.82666,-1.83252 19.60986,-2.85596z" fill="#FBF9F9"/>
 </g>
</svg>